<svg width="64" height="31" fill="none" xmlns="http://www.w3.org/2000/svg"><path opacity=".6" fill="#7A66CC" stroke="#1C1B21" stroke-width=".5" d="M.25 8.25h3.5v22.5H.25z"/><path opacity=".3" fill="#7A66CC" stroke="#1C1B21" stroke-width=".5" d="M4.25 18.25h3.5v12.5h-3.5z"/><path opacity=".8" fill="#7A66CC" stroke="#1C1B21" stroke-width=".5" d="M8.25 5.25h3.5v25.5h-3.5z"/><path opacity=".6" fill="#7A66CC" stroke="#1C1B21" stroke-width=".5" d="M12.25 12.25h3.5v18.5h-3.5z"/><path fill="#7A66CC" stroke="#1C1B21" stroke-width=".5" d="M16.25.25h3.5v30.5h-3.5z"/><path opacity=".9" fill="#7A66CC" stroke="#1C1B21" stroke-width=".5" d="M20.25 5.25h3.5v25.5h-3.5z"/><path opacity=".6" fill="#7A66CC" stroke="#1C1B21" stroke-width=".5" d="M24.25 10.25h3.5v20.5h-3.5z"/><path opacity=".8" fill="#7A66CC" stroke="#1C1B21" stroke-width=".5" d="M28.25 3.25h3.5v27.5h-3.5z"/><path opacity=".4" fill="#7A66CC" stroke="#1C1B21" stroke-width=".5" d="M32.25 17.25h3.5v13.5h-3.5z"/><path opacity=".5" fill="#7A66CC" stroke="#1C1B21" stroke-width=".5" d="M36.25 12.25h3.5v18.5h-3.5z"/><path opacity=".55" fill="#7A66CC" stroke="#1C1B21" stroke-width=".5" d="M40.25 8.25h3.5v22.5h-3.5z"/><path opacity=".6" fill="#7A66CC" stroke="#1C1B21" stroke-width=".5" d="M44.25 4.25h3.5v26.5h-3.5z"/><path opacity=".3" fill="#7A66CC" stroke="#1C1B21" stroke-width=".5" d="M48.25 19.25h3.5v11.5h-3.5z"/><path opacity=".2" fill="#7A66CC" stroke="#1C1B21" stroke-width=".5" d="M52.25 24.25h3.5v6.5h-3.5z"/><path opacity=".8" fill="#7A66CC" stroke="#1C1B21" stroke-width=".5" d="M56.25 2.25h3.5v28.5h-3.5zm4 6h3.5v22.5h-3.5z"/></svg>